<svg width="45" height="15" viewBox="0 0 72 24" fill="none" xmlns="http://www.w3.org/2000/svg">
<path d="M36.1202 3.67683C36.1202 2.54882 37.0706 1.63202 38.189 1.63202C39.3074 1.63202 40.2578 2.55362 40.2578 3.67683C40.2578 4.80003 39.341 5.74563 38.189 5.74563C37.037 5.74563 36.1202 4.82883 36.1202 3.67683Z" fill="#011E0F"/>
<path d="M29.981 1.92001H33.581V22.08H29.981V1.92001Z" fill="#011E0F"/>
<path d="M40.0082 7.68001H36.3794V22.08H40.0082V7.68001Z" fill="#011E0F"/>
<path d="M66.0962 14.3904C68.8274 12.7104 70.685 10.2096 71.4194 7.67524H67.7906C66.845 10.0944 64.6754 11.9136 62.2898 12.6864V1.91523H58.661V22.0752H62.2898V16.08C65.0594 16.7712 67.2482 19.1664 67.997 22.0752H71.6498C71.093 19.0224 69.005 16.1664 66.0962 14.3904Z" fill="#011E0F"/>
<path d="M46.4402 9.29283C47.3906 8.03043 49.2433 7.29602 50.7457 7.29602C53.5489 7.29602 55.8673 9.34563 55.8721 12.4416V22.0752H52.2433V13.2432C52.2433 11.9712 51.677 10.5024 49.8386 10.5024C47.6786 10.5024 46.4354 12.4176 46.4354 14.6592V22.0848H42.8066V7.68962H46.4402V9.29283Z" fill="#011E0F"/>
<path d="M12 24C18.6274 24 24 18.6274 24 12C24 5.37257 18.6274 0 12 0C5.37259 0 0 5.37257 0 12C0 18.6274 5.37259 24 12 24Z" fill="#00D66F"/>
<path d="M11.4479 4.80005H7.74707C8.46707 7.80965 10.5695 10.3824 13.1999 12C10.5647 13.6176 8.46707 16.1904 7.74707 19.2H11.4479C12.3647 16.416 14.9039 13.9968 18.0239 13.5024V10.4929C14.8991 10.0033 12.3599 7.58405 11.4479 4.80005Z" fill="#011E0F"/>
</svg>
