<svg width="213" height="64" viewBox="0 0 213 64" fill="none" xmlns="http://www.w3.org/2000/svg">
<path d="M96.3271 37.29C93.9771 39.89 90.3771 40.44 88.2871 38.53C86.1871 36.62 86.6771 32.87 88.7071 30.03C90.7971 27.1 94.7171 26.53 96.8071 28.44C98.9071 30.35 98.6771 34.7 96.3271 37.29Z" fill="#1260AA"/>
<path d="M105.077 41.77C101.037 54.62 89.0575 63.93 74.9075 63.93C63.9575 63.93 54.2975 58.35 48.6275 49.87C54.8375 51.74 62.6175 49.34 68.1275 43.25C71.6875 39.32 73.5875 34.66 73.8175 30.26C73.8275 30 73.6175 29.79 73.3675 29.79L56.5675 29.81C56.3475 29.81 56.1675 29.97 56.1275 30.18L54.8975 37.02C54.8475 37.3 55.0675 37.56 55.3575 37.55L58.8875 37.43C59.2475 37.42 59.4775 37.82 59.2775 38.13C58.9475 38.65 58.5375 38.92 58.5375 38.92C56.5675 40.25 54.6875 39.81 54.6675 39.8C48.5075 38.28 52.6475 30.14 52.6575 30.13C56.2675 23.6 61.2375 27.16 62.4275 28.17C62.5975 28.32 62.8375 28.36 63.0575 28.29L72.8075 25.05C73.0375 24.97 73.1775 24.72 73.0975 24.49C72.4075 22.31 71.1275 20.27 69.3575 18.66C62.9675 12.84 50.1275 14.68 44.2775 23.95C44.2375 24.01 44.2375 23.68 44.1875 23.74C48.3275 11.06 60.8775 0.52002 74.9075 0.52002C86.8075 0.52002 97.1875 7.11002 102.577 16.85C96.1275 13.27 87.0075 15.23 80.7175 22.18C73.5575 30.09 72.9375 41.22 79.3275 47.03C85.7175 52.85 96.7075 51.15 103.867 43.24C104.297 42.76 104.707 42.28 105.087 41.78" fill="#1260AA"/>
<path d="M1.35727 15.51L9.12727 15.54C9.40727 15.54 9.62727 15.77 9.62727 16.05V30.21C9.62727 30.49 9.84727 30.72 10.1273 30.72H19.1473C19.4273 30.72 19.6473 30.49 19.6473 30.21V17.01C19.6473 16.73 19.8673 16.5 20.1473 16.5H27.8273C28.1073 16.5 28.3273 16.73 28.3273 17.01V49.91C28.3273 50.19 28.0973 50.42 27.8273 50.42H20.1473C19.8673 50.4 19.6473 50.18 19.6473 49.9V38.96C19.6473 38.68 19.4173 38.45 19.1473 38.45H10.1273C9.84727 38.45 9.62727 38.68 9.62727 38.96V49.9C9.62727 50.18 9.39727 50.41 9.12727 50.41H1.44727C1.16727 50.41 0.947266 50.18 0.947266 49.9V15.93C0.947266 15.7 1.12727 15.52 1.35727 15.52" fill="#1D1D1B"/>
<path d="M30.7765 22.64H29.3565C29.1265 22.64 28.9465 22.82 28.9465 23.05V30.19C28.9465 30.42 29.1265 30.6 29.3565 30.6H30.6865C32.0965 30.6 33.2665 30.28 34.1765 29.65C35.0965 29.02 35.5465 27.88 35.5465 26.25C35.5465 25.11 35.1765 24.22 34.4365 23.59C33.6965 22.96 32.4765 22.64 30.7765 22.64ZM30.9265 15.51C40.2765 15.51 44.9465 18.95 44.9465 25.82C44.9465 27.94 44.4265 29.77 43.3765 31.32C42.4065 32.76 41.1065 33.98 39.4865 34.98C39.2865 35.1 39.2265 35.37 39.3565 35.56L49.1365 50.4H38.8165C38.6665 50.4 38.5365 50.32 38.4665 50.19L31.8565 38.65C31.7865 38.52 31.6465 38.44 31.5065 38.44H29.3565C29.1265 38.44 28.9465 38.63 28.9465 38.85V49.97C28.9465 50.2 28.7665 50.38 28.5365 50.38H20.0565C19.8265 50.38 19.6465 50.19 19.6465 49.97V15.9C19.6465 15.67 19.8265 15.49 20.0565 15.49H30.9265V15.51Z" fill="#1D1D1B"/>
<path d="M115.258 28.28C115.668 28.28 116.018 28.31 116.278 28.37L116.078 30.41C115.788 30.34 115.478 30.3 115.168 30.3C114.348 30.3 113.678 30.59 113.168 31.16C112.658 31.73 112.398 32.48 112.398 33.39V38.78H110.338V28.46H111.948L112.218 30.28H112.318C112.638 29.66 113.058 29.18 113.578 28.82C114.098 28.46 114.648 28.28 115.248 28.28H115.258Z" fill="#1D1D1B"/>
<path d="M122.308 38.97C120.798 38.97 119.628 38.5 118.778 37.57C117.928 36.63 117.508 35.34 117.508 33.7C117.508 32.06 117.898 30.69 118.688 29.72C119.478 28.76 120.558 28.27 121.938 28.27C123.218 28.27 124.228 28.68 124.968 29.51C125.708 30.34 126.078 31.48 126.078 32.93V34.12H119.628C119.658 35.12 119.908 35.89 120.388 36.43C120.868 36.97 121.538 37.24 122.408 37.24C122.978 37.24 123.508 37.18 124.008 37.07C124.498 36.95 125.028 36.76 125.598 36.5V38.28C125.098 38.54 124.588 38.72 124.078 38.82C123.568 38.93 122.978 38.98 122.318 38.98L122.308 38.97ZM121.928 29.94C121.278 29.94 120.748 30.16 120.358 30.6C119.968 31.04 119.728 31.69 119.648 32.53H124.048C124.038 31.68 123.848 31.03 123.468 30.59C123.098 30.15 122.578 29.93 121.928 29.93V29.94Z" fill="#1D1D1B"/>
<path d="M132.318 38.97C130.848 38.97 129.738 38.51 128.978 37.6C128.218 36.69 127.838 35.38 127.838 33.67C127.838 31.96 128.238 30.6 129.038 29.67C129.838 28.74 130.988 28.27 132.488 28.27C133.508 28.27 134.428 28.47 135.248 28.88L134.628 30.65C133.758 30.29 133.038 30.11 132.478 30.11C130.798 30.11 129.968 31.3 129.968 33.67C129.968 34.83 130.178 35.7 130.598 36.28C131.018 36.86 131.628 37.15 132.428 37.15C133.348 37.15 134.208 36.91 135.028 36.42V38.33C134.658 38.56 134.268 38.72 133.848 38.82C133.428 38.92 132.928 38.97 132.328 38.97H132.318Z" fill="#1D1D1B"/>
<path d="M142.197 28.28C142.607 28.28 142.957 28.31 143.217 28.37L143.017 30.41C142.727 30.34 142.417 30.3 142.107 30.3C141.287 30.3 140.617 30.59 140.107 31.16C139.597 31.73 139.337 32.48 139.337 33.39V38.78H137.277V28.46H138.887L139.157 30.28H139.257C139.577 29.66 139.997 29.18 140.517 28.82C141.037 28.46 141.587 28.28 142.187 28.28H142.197Z" fill="#1D1D1B"/>
<path d="M151.848 38.78L151.558 37.43H151.458C151.168 37.91 150.768 38.29 150.238 38.56C149.708 38.83 149.108 38.97 148.428 38.97C147.258 38.97 146.378 38.66 145.798 38.04C145.218 37.42 144.928 36.48 144.928 35.21V28.46H147.008V34.83C147.008 35.62 147.158 36.21 147.468 36.61C147.768 37 148.248 37.2 148.898 37.2C149.758 37.2 150.398 36.92 150.798 36.37C151.198 35.82 151.408 34.9 151.408 33.6V28.46H153.478V38.78H151.858H151.848Z" fill="#1D1D1B"/>
<path d="M156.277 25.73C156.277 25.34 156.377 25.04 156.577 24.83C156.777 24.62 157.067 24.51 157.437 24.51C157.807 24.51 158.077 24.62 158.277 24.83C158.477 25.04 158.577 25.34 158.577 25.73C158.577 26.12 158.477 26.4 158.277 26.61C158.077 26.82 157.797 26.93 157.437 26.93C157.077 26.93 156.777 26.82 156.577 26.61C156.377 26.4 156.277 26.1 156.277 25.73ZM158.457 38.78H156.397V28.46H158.457V38.78Z" fill="#1D1D1B"/>
<path d="M165.007 37.2C165.507 37.2 166.007 37.12 166.517 36.95V38.6C166.287 38.71 165.997 38.79 165.637 38.87C165.277 38.94 164.907 38.98 164.517 38.98C162.567 38.98 161.597 37.88 161.597 35.69V30.13H160.277V29.16L161.697 28.36L162.397 26.18H163.667V28.47H166.427V30.13H163.667V35.66C163.667 36.19 163.787 36.58 164.037 36.83C164.287 37.08 164.607 37.21 165.017 37.21L165.007 37.2Z" fill="#1D1D1B"/>
<path d="M176.607 38.78H174.537V32.41C174.537 31.62 174.397 31.03 174.117 30.64C173.837 30.25 173.397 30.06 172.807 30.06C172.017 30.06 171.427 30.34 171.057 30.89C170.687 31.44 170.497 32.36 170.497 33.64V38.78H168.438V28.46H170.048L170.337 29.81H170.438C170.707 29.32 171.097 28.94 171.607 28.67C172.117 28.4 172.678 28.27 173.298 28.27C174.788 28.27 175.777 28.81 176.257 29.89H176.397C176.687 29.38 177.087 28.98 177.607 28.7C178.127 28.41 178.717 28.27 179.397 28.27C180.557 28.27 181.397 28.58 181.927 29.2C182.457 29.82 182.717 30.77 182.717 32.05V38.78H180.658V32.41C180.658 31.62 180.517 31.03 180.237 30.64C179.957 30.25 179.517 30.06 178.917 30.06C178.117 30.06 177.538 30.33 177.158 30.86C176.788 31.39 176.597 32.21 176.597 33.31V38.78H176.607Z" fill="#1D1D1B"/>
<path d="M189.818 38.97C188.308 38.97 187.138 38.5 186.288 37.57C185.438 36.63 185.018 35.34 185.018 33.7C185.018 32.06 185.408 30.69 186.198 29.72C186.988 28.76 188.068 28.27 189.448 28.27C190.728 28.27 191.738 28.68 192.478 29.51C193.218 30.34 193.588 31.48 193.588 32.93V34.12H187.138C187.168 35.12 187.418 35.89 187.898 36.43C188.378 36.97 189.048 37.24 189.918 37.24C190.488 37.24 191.018 37.18 191.518 37.07C192.008 36.95 192.538 36.76 193.108 36.5V38.28C192.608 38.54 192.098 38.72 191.588 38.82C191.078 38.93 190.488 38.98 189.828 38.98L189.818 38.97ZM189.448 29.94C188.798 29.94 188.268 30.16 187.878 30.6C187.488 31.04 187.248 31.69 187.168 32.53H191.568C191.558 31.68 191.368 31.03 190.988 30.59C190.618 30.15 190.098 29.93 189.448 29.93V29.94Z" fill="#1D1D1B"/>
<path d="M204.448 38.78H202.378V32.43C202.378 31.63 202.228 31.04 201.928 30.65C201.628 30.26 201.148 30.06 200.498 30.06C199.628 30.06 198.988 30.33 198.588 30.88C198.188 31.43 197.988 32.34 197.988 33.63V38.77H195.928V28.45H197.538L197.828 29.8H197.928C198.218 29.31 198.638 28.93 199.168 28.66C199.698 28.39 200.298 28.26 200.958 28.26C203.278 28.26 204.438 29.52 204.438 32.04V38.77L204.448 38.78Z" fill="#1D1D1B"/>
<path d="M210.917 37.2C211.417 37.2 211.917 37.12 212.427 36.95V38.6C212.197 38.71 211.908 38.79 211.548 38.87C211.188 38.94 210.817 38.98 210.427 38.98C208.477 38.98 207.507 37.88 207.507 35.69V30.13H206.188V29.16L207.607 28.36L208.307 26.18H209.577V28.47H212.337V30.13H209.577V35.66C209.577 36.19 209.697 36.58 209.947 36.83C210.197 37.08 210.517 37.21 210.927 37.21L210.917 37.2Z" fill="#1D1D1B"/>
</svg>
