<svg width="143" height="52" viewBox="0 0 143 52" fill="none" xmlns="http://www.w3.org/2000/svg">
<rect x="1" y="0.945312" width="141" height="50" rx="7.5" fill="white"/>
<rect x="1" y="0.945312" width="141" height="50" rx="7.5" stroke="white"/>
<path d="M45.3964 28.1406V34.6439H41.3867V17.0877H47.0055C48.2453 17.0877 49.3269 17.2215 50.1974 17.4892C51.0679 17.7568 51.8066 18.1047 52.3605 18.5864C52.9145 19.0414 53.3366 19.6034 53.574 20.2457C53.8378 20.888 53.9433 21.5838 53.9433 22.3064C53.9433 22.8684 53.8641 23.4037 53.7059 23.9121C53.5476 24.4206 53.3366 24.8756 53.0464 25.3038C52.7562 25.732 52.3869 26.1067 51.9648 26.4546C51.5428 26.8025 51.0416 27.0701 50.4876 27.2842C50.7514 27.418 51.0152 27.5786 51.2526 27.7927C51.49 28.0068 51.701 28.2476 51.8593 28.5153L55.5524 34.6171H51.9121C51.2526 34.6171 50.7514 34.3495 50.4612 33.841L47.5859 28.7561C47.454 28.542 47.3221 28.3815 47.1374 28.2744C46.9791 28.1674 46.7153 28.1406 46.4252 28.1406H45.3964ZM45.3964 25.3305H47.0055C47.5595 25.3305 48.0079 25.2503 48.4036 25.1164C48.7993 24.9826 49.0895 24.7685 49.3533 24.5277C49.5907 24.2868 49.7753 23.9924 49.8809 23.6445C49.9864 23.3234 50.0391 22.9487 50.0391 22.574C50.0391 21.7979 49.8017 21.2091 49.3005 20.7542C48.7993 20.326 48.0343 20.1119 47.0055 20.1119H45.3964V25.3305ZM67.555 17.0877V20.2189H60.459V24.3136H65.8931V27.311H60.459V31.4859H67.555V34.6171H56.4229V17.0877H67.555ZM80.6919 30.0943C80.7975 30.0943 80.8766 30.121 80.9821 30.1478C81.0876 30.1745 81.1668 30.2548 81.2459 30.3351L82.8287 32.0211C82.1428 32.9578 81.2723 33.6537 80.2171 34.1086C79.1619 34.5903 77.9221 34.8044 76.4976 34.8044C75.1787 34.8044 74.018 34.5903 72.9628 34.1354C71.934 33.6804 71.0371 33.0649 70.3249 32.262C69.6126 31.4591 69.0323 30.5225 68.663 29.4252C68.2673 28.3279 68.0826 27.1504 68.0826 25.8658C68.0826 24.5544 68.2936 23.3501 68.7421 22.2529C69.1905 21.1556 69.7973 20.2189 70.5887 19.4161C71.38 18.6132 72.3297 17.9976 73.4376 17.5695C74.5456 17.1413 75.759 16.9004 77.1044 16.9004C77.7638 16.9004 78.3706 16.9539 78.9509 17.0877C79.5313 17.1948 80.0588 17.3554 80.56 17.5695C81.0613 17.7835 81.5097 18.0244 81.9318 18.292C82.3538 18.5864 82.7232 18.8808 83.0397 19.2287L81.6944 21.0753C81.6152 21.1824 81.5097 21.2894 81.3778 21.3697C81.2723 21.45 81.0876 21.5035 80.8766 21.5035C80.7447 21.5035 80.5864 21.4768 80.4809 21.3965C80.3754 21.3162 80.2171 21.2627 80.0852 21.1556C79.9533 21.0753 79.795 20.9683 79.6104 20.8612C79.4521 20.7542 79.2411 20.6471 79.0037 20.5668C78.7662 20.4866 78.5025 20.4063 78.1859 20.326C77.8694 20.2725 77.5 20.2189 77.078 20.2189C76.3394 20.2189 75.6799 20.3527 75.0731 20.6204C74.4664 20.888 73.9652 21.2627 73.5168 21.7444C73.0947 22.2261 72.7518 22.8149 72.5143 23.5107C72.2769 24.2065 72.145 24.9826 72.145 25.839C72.145 26.749 72.2769 27.5251 72.5143 28.2476C72.7518 28.9435 73.0947 29.5322 73.4904 30.014C73.9124 30.4957 74.3873 30.8436 74.9412 31.1112C75.4952 31.3521 76.0756 31.4859 76.735 31.4859C77.1044 31.4859 77.4209 31.4591 77.7375 31.4324C78.0276 31.4056 78.3178 31.3253 78.5816 31.245C78.8454 31.1648 79.0828 31.0309 79.3202 30.8971C79.5576 30.7633 79.795 30.576 80.0325 30.3619C80.138 30.2816 80.2435 30.2281 80.349 30.1745C80.4545 30.121 80.5864 30.0943 80.6919 30.0943Z" fill="#0D133D"/>
<path d="M21.18 40.5842C19.5973 40.5842 18.3047 39.2728 18.3047 37.6671C18.3047 36.0614 19.5973 34.75 21.18 34.75H24.0554V37.6671C24.0554 39.2728 22.7628 40.5842 21.18 40.5842Z" fill="#5974D4"/>
<path d="M9.62535 28.8625C11.2134 28.8625 12.5007 27.5565 12.5007 25.9454C12.5007 24.3344 11.2134 23.0283 9.62535 23.0283C8.03734 23.0283 6.75 24.3344 6.75 25.9454C6.75 27.5565 8.03734 28.8625 9.62535 28.8625Z" fill="#5974D4"/>
<path d="M15.4027 34.7239C16.9907 34.7239 18.278 33.4178 18.278 31.8068C18.278 30.1957 16.9907 28.8896 15.4027 28.8896C13.8147 28.8896 12.5273 30.1957 12.5273 31.8068C12.5273 33.4178 13.8147 34.7239 15.4027 34.7239Z" fill="#5974D4"/>
<path d="M24.0551 17.1408H18.278V14.2237C18.278 12.618 19.5706 11.3066 21.1534 11.3066C22.7361 11.3066 24.0287 12.618 24.0287 14.2237V17.1408H24.0551ZM29.8058 23.0018H24.0551V17.1408H26.9832C28.566 17.1408 29.8322 18.4254 29.8322 20.0312V23.0018H29.8058ZM29.8322 28.8628V23.0286H32.7075C34.2903 23.0286 35.5829 24.3399 35.5829 25.9457C35.5829 27.5514 34.2903 28.8628 32.7075 28.8628H29.8322ZM24.0551 34.7237V28.8895H29.8058V31.8602C29.8058 33.4659 28.5396 34.7505 26.9568 34.7505H24.0551V34.7237ZM24.0551 28.8628V23.0286H21.1798C19.597 23.0286 18.3044 24.3399 18.3044 25.9457C18.3044 27.5514 19.597 28.8628 21.1798 28.8628H24.0551ZM15.4027 23.0018C13.8199 23.0018 12.5273 21.6905 12.5273 20.0847C12.5273 18.479 13.8199 17.1676 15.4027 17.1676H18.278V20.0847C18.278 21.6905 16.9855 23.0018 15.4027 23.0018Z" fill="#5974D4"/>
<path d="M88.8672 11.3066H89.131V40.5847H88.8672V11.3066ZM99.8938 23.2427C99.9465 23.2427 99.9729 23.2694 100.026 23.2962L100.369 23.6709C100.105 23.992 99.7882 24.2329 99.4189 24.3935C99.0496 24.554 98.6012 24.6611 98.0736 24.6611C97.5987 24.6611 97.2031 24.5808 96.8074 24.4202C96.4381 24.2596 96.1215 24.0188 95.8313 23.7244C95.5412 23.43 95.3565 23.0821 95.2246 22.6807C95.0663 22.2792 95.0136 21.8243 95.0136 21.3425C95.0136 20.8608 95.0927 20.4059 95.251 20.0044C95.4093 19.603 95.6203 19.2551 95.9105 18.9607C96.2006 18.6663 96.5436 18.4254 96.9393 18.2649C97.335 18.1043 97.7834 18.024 98.2582 18.024C98.7331 18.024 99.1287 18.1043 99.4717 18.2381C99.8146 18.3987 100.131 18.586 100.395 18.8536L100.105 19.2551L100.026 19.3354C99.9993 19.3621 99.9729 19.3621 99.9201 19.3621C99.8938 19.3621 99.841 19.3354 99.7882 19.3086C99.7355 19.2818 99.6827 19.2551 99.63 19.2015C99.5772 19.148 99.4981 19.1213 99.4189 19.0677C99.3398 19.0142 99.2343 18.9607 99.1288 18.9339C99.0232 18.8804 98.8913 18.8536 98.7331 18.8269C98.5748 18.8001 98.4165 18.7734 98.2319 18.7734C97.8889 18.7734 97.5724 18.8269 97.2822 18.9607C96.992 19.0677 96.7546 19.2551 96.5436 19.4692C96.3325 19.6833 96.1743 19.9509 96.0687 20.272C95.9632 20.5932 95.8841 20.9411 95.8841 21.3425C95.8841 21.744 95.9368 22.1187 96.0687 22.4398C96.1743 22.7609 96.3325 23.0286 96.5436 23.2427C96.7546 23.4568 96.9656 23.6173 97.2558 23.7512C97.5196 23.8582 97.8098 23.9117 98.1263 23.9117C98.311 23.9117 98.4956 23.9117 98.6539 23.885C98.8122 23.8582 98.9441 23.8314 99.076 23.7779C99.2079 23.7244 99.3398 23.6709 99.4453 23.5906C99.5508 23.5103 99.6827 23.43 99.7882 23.323C99.7882 23.2694 99.841 23.2427 99.8938 23.2427ZM103.376 19.9241C103.719 19.9241 104.009 19.9777 104.273 20.0847C104.537 20.1918 104.774 20.3523 104.959 20.5664C105.143 20.7805 105.302 21.0214 105.381 21.3158C105.486 21.6102 105.539 21.9313 105.539 22.306C105.539 22.6807 105.486 23.0018 105.381 23.2962C105.275 23.5906 105.143 23.8314 104.959 24.0455C104.774 24.2596 104.537 24.4202 104.273 24.5273C104.009 24.6343 103.692 24.6878 103.376 24.6878C103.059 24.6878 102.743 24.6343 102.479 24.5273C102.215 24.4202 101.978 24.2596 101.793 24.0455C101.608 23.8314 101.45 23.5906 101.371 23.2962C101.265 23.0018 101.213 22.6807 101.213 22.306C101.213 21.9581 101.265 21.6102 101.371 21.3158C101.477 21.0214 101.608 20.7805 101.793 20.5664C101.978 20.3523 102.215 20.1918 102.479 20.0847C102.743 19.9777 103.033 19.9241 103.376 19.9241ZM103.376 24.0455C103.824 24.0455 104.167 23.885 104.378 23.5906C104.589 23.2962 104.721 22.868 104.721 22.306C104.721 21.744 104.616 21.3425 104.378 21.0214C104.167 20.727 103.824 20.5664 103.376 20.5664C103.138 20.5664 102.954 20.5932 102.795 20.6735C102.637 20.7538 102.479 20.8608 102.373 21.0214C102.268 21.182 102.189 21.3425 102.11 21.5566C102.057 21.7707 102.03 22.0116 102.03 22.2792C102.03 22.6807 102.057 22.7877 102.11 23.0018C102.162 23.2159 102.242 23.4032 102.373 23.5371C102.479 23.6709 102.637 23.8047 102.795 23.885C102.954 23.9653 103.138 24.0455 103.376 24.0455ZM106.673 24.6076V20.0044H107.122C107.201 20.0044 107.28 20.0312 107.306 20.0579C107.333 20.0847 107.359 20.1382 107.385 20.2185L107.438 20.9411C107.597 20.62 107.781 20.3791 108.019 20.1918C108.256 20.0044 108.52 19.9241 108.836 19.9241C108.968 19.9241 109.074 19.9509 109.179 19.9777C109.285 20.0044 109.364 20.0579 109.469 20.1115L109.364 20.727C109.338 20.8073 109.285 20.8341 109.232 20.8341C109.179 20.8341 109.127 20.8073 109.047 20.7805C108.968 20.7538 108.836 20.727 108.678 20.727C108.388 20.727 108.177 20.8073 107.992 20.9679C107.808 21.1284 107.649 21.3693 107.517 21.6905V24.6343H106.673V24.6076ZM110.472 26.1598V20.0044H110.947C111.052 20.0044 111.131 20.0579 111.158 20.165L111.237 20.7002C111.422 20.4594 111.659 20.272 111.896 20.1115C112.134 19.9777 112.424 19.8974 112.767 19.8974C113.031 19.8974 113.268 19.9509 113.479 20.0579C113.69 20.165 113.875 20.2988 114.033 20.5129C114.191 20.7002 114.297 20.9679 114.376 21.2623C114.455 21.5566 114.508 21.9046 114.508 22.2792C114.508 22.6271 114.455 22.9483 114.376 23.2159C114.297 23.4835 114.165 23.7512 113.98 23.9653C113.822 24.1794 113.611 24.3399 113.374 24.4737C113.136 24.6076 112.846 24.6611 112.556 24.6611C112.266 24.6611 112.028 24.6076 111.844 24.5273C111.633 24.4202 111.474 24.3132 111.316 24.1258V26.1598H110.472ZM112.477 20.5664C112.213 20.5664 111.975 20.62 111.791 20.7538C111.606 20.8876 111.422 21.0482 111.263 21.2623V23.4835C111.422 23.6709 111.58 23.8314 111.738 23.9117C111.923 23.992 112.107 24.0455 112.318 24.0455C112.74 24.0455 113.057 23.885 113.294 23.5906C113.532 23.2962 113.637 22.8412 113.637 22.2792C113.637 21.9848 113.611 21.7172 113.558 21.5031C113.505 21.289 113.426 21.1017 113.321 20.9679C113.215 20.8341 113.11 20.727 112.952 20.6735C112.82 20.5932 112.661 20.5664 112.477 20.5664ZM117.41 19.9241C117.753 19.9241 118.043 19.9777 118.307 20.0847C118.57 20.1918 118.808 20.3523 118.992 20.5664C119.177 20.7805 119.335 21.0214 119.414 21.3158C119.52 21.6102 119.573 21.9313 119.573 22.306C119.573 22.6807 119.52 23.0018 119.414 23.2962C119.309 23.5906 119.177 23.8314 118.992 24.0455C118.808 24.2596 118.57 24.4202 118.307 24.5273C118.043 24.6343 117.726 24.6878 117.41 24.6878C117.093 24.6878 116.777 24.6343 116.513 24.5273C116.249 24.4202 116.012 24.2596 115.827 24.0455C115.642 23.8314 115.484 23.5906 115.405 23.2962C115.299 23.0018 115.247 22.6807 115.247 22.306C115.247 21.9581 115.299 21.6102 115.405 21.3158C115.51 21.0214 115.642 20.7805 115.827 20.5664C116.012 20.3523 116.249 20.1918 116.513 20.0847C116.777 19.9777 117.093 19.9241 117.41 19.9241ZM117.41 24.0455C117.858 24.0455 118.201 23.885 118.412 23.5906C118.623 23.2962 118.755 22.868 118.755 22.306C118.755 21.744 118.649 21.3425 118.412 21.0214C118.201 20.727 117.858 20.5664 117.41 20.5664C117.172 20.5664 116.988 20.5932 116.829 20.6735C116.671 20.7538 116.513 20.8608 116.407 21.0214C116.302 21.182 116.223 21.3425 116.143 21.5566C116.091 21.7707 116.064 22.0116 116.064 22.2792C116.064 22.6807 116.091 22.7877 116.143 23.0018C116.196 23.2159 116.275 23.4032 116.407 23.5371C116.513 23.6709 116.671 23.8047 116.829 23.885C116.988 23.9653 117.172 24.0455 117.41 24.0455ZM120.733 24.6076V20.0044H121.182C121.261 20.0044 121.34 20.0312 121.367 20.0579C121.393 20.0847 121.419 20.1382 121.446 20.2185L121.498 20.9411C121.657 20.62 121.841 20.3791 122.079 20.1918C122.316 20.0044 122.58 19.9241 122.897 19.9241C123.028 19.9241 123.134 19.9509 123.239 19.9777C123.345 20.0044 123.424 20.0579 123.53 20.1115L123.424 20.727C123.398 20.8073 123.345 20.8341 123.292 20.8341C123.239 20.8341 123.187 20.8073 123.108 20.7805C123.028 20.7538 122.897 20.727 122.738 20.727C122.448 20.727 122.237 20.8073 122.052 20.9679C121.868 21.1284 121.709 21.3693 121.578 21.6905V24.6343H120.733V24.6076ZM127.671 24.6076H127.328C127.249 24.6076 127.196 24.6076 127.144 24.5808C127.091 24.554 127.064 24.5005 127.038 24.4202L126.959 23.992C126.827 24.0991 126.722 24.2061 126.616 24.2864C126.511 24.3667 126.379 24.447 126.247 24.5005C126.115 24.554 125.983 24.6076 125.851 24.6343C125.719 24.6611 125.561 24.6878 125.376 24.6878C125.192 24.6878 125.033 24.6611 124.875 24.6076C124.717 24.554 124.585 24.4737 124.479 24.3935C124.374 24.3132 124.268 24.1794 124.216 24.0188C124.163 23.8582 124.11 23.6709 124.11 23.4835C124.11 23.2962 124.163 23.1356 124.268 22.9483C124.374 22.7877 124.532 22.6271 124.743 22.4933C124.954 22.3595 125.244 22.2525 125.614 22.1722C125.957 22.0919 126.405 22.0384 126.906 22.0384V21.6637C126.906 21.3158 126.827 21.0214 126.669 20.8341C126.511 20.6467 126.299 20.5664 126.009 20.5664C125.825 20.5664 125.64 20.5932 125.508 20.6467C125.376 20.7002 125.271 20.7538 125.165 20.8073C125.06 20.8608 124.981 20.9143 124.901 20.9679C124.822 21.0214 124.769 21.0482 124.69 21.0482C124.638 21.0482 124.585 21.0214 124.558 20.9946C124.532 20.9679 124.479 20.9411 124.453 20.8876L124.321 20.62C124.585 20.3791 124.849 20.1918 125.139 20.0579C125.429 19.9241 125.746 19.8706 126.115 19.8706C126.379 19.8706 126.59 19.9241 126.801 20.0044C126.985 20.0847 127.17 20.2185 127.302 20.3523C127.434 20.4861 127.539 20.7002 127.618 20.9143C127.698 21.1284 127.724 21.3693 127.724 21.6369V24.6076H127.671ZM125.587 24.0991C125.719 24.0991 125.851 24.0723 125.983 24.0455C126.088 24.0188 126.22 23.9653 126.299 23.9117C126.405 23.8582 126.511 23.8047 126.59 23.7244C126.695 23.6441 126.774 23.5638 126.853 23.4568V22.4933C126.484 22.4933 126.168 22.5201 125.904 22.5736C125.64 22.6271 125.429 22.6807 125.271 22.7609C125.112 22.8412 124.981 22.9215 124.928 23.0286C124.849 23.1356 124.822 23.2427 124.822 23.3765C124.822 23.5103 124.849 23.5906 124.875 23.6976C124.901 23.7779 124.954 23.8582 125.033 23.9117C125.086 23.9653 125.165 24.0188 125.271 24.0455C125.403 24.0991 125.482 24.0991 125.587 24.0991ZM130.415 24.6878C130.045 24.6878 129.782 24.5808 129.597 24.3935C129.412 24.1794 129.307 23.885 129.307 23.5103V20.6735H128.753C128.7 20.6735 128.674 20.6467 128.621 20.62C128.594 20.5932 128.568 20.5397 128.568 20.4861V20.165L129.307 20.0579L129.491 18.6395C129.491 18.586 129.518 18.5593 129.544 18.5325C129.571 18.5057 129.623 18.479 129.676 18.479H130.072V20.0579H131.364V20.6467H130.072V23.4032C130.072 23.5906 130.124 23.7512 130.204 23.8314C130.309 23.9385 130.415 23.9653 130.573 23.9653C130.652 23.9653 130.731 23.9653 130.784 23.9385L130.942 23.8582C130.995 23.8314 131.021 23.8047 131.048 23.7779C131.074 23.7512 131.101 23.7512 131.127 23.7512C131.18 23.7512 131.206 23.7779 131.232 23.8314L131.47 24.2061C131.338 24.3399 131.153 24.447 130.969 24.5005C130.81 24.6343 130.626 24.6878 130.415 24.6878ZM134.345 19.9241C134.609 19.9241 134.873 19.9777 135.11 20.0579C135.348 20.1382 135.532 20.272 135.717 20.4594C135.875 20.6467 136.007 20.8608 136.113 21.1017C136.218 21.3693 136.244 21.6369 136.244 21.9848C136.244 22.1187 136.218 22.1989 136.192 22.2525C136.165 22.306 136.113 22.306 136.033 22.306H133C133 22.6004 133.053 22.8412 133.105 23.0553C133.184 23.2694 133.264 23.4568 133.396 23.5906C133.527 23.7244 133.659 23.8314 133.844 23.9117C134.029 23.992 134.213 24.0188 134.424 24.0188C134.635 24.0188 134.794 23.992 134.952 23.9385C135.11 23.885 135.216 23.8314 135.321 23.7779C135.427 23.7244 135.506 23.6709 135.585 23.6173C135.664 23.5638 135.717 23.5371 135.77 23.5371C135.822 23.5371 135.875 23.5638 135.928 23.6173L136.139 23.9117C136.033 24.0455 135.928 24.1258 135.796 24.2329C135.664 24.3132 135.506 24.3935 135.348 24.447C135.189 24.5005 135.031 24.554 134.873 24.5808C134.714 24.6076 134.53 24.6343 134.372 24.6343C134.055 24.6343 133.765 24.5808 133.501 24.4737C133.105 24.3132 133 24.2061 132.815 23.992C132.631 23.7779 132.472 23.5371 132.367 23.2159C132.261 22.9215 132.208 22.5468 132.208 22.1722C132.208 21.851 132.261 21.5566 132.367 21.2623C132.472 20.9679 132.604 20.7538 132.789 20.5397C132.973 20.3256 133.184 20.165 133.448 20.0579C133.712 19.9777 134.002 19.9241 134.345 19.9241ZM134.372 20.5129C133.976 20.5129 133.686 20.62 133.448 20.8608C133.211 21.1017 133.079 21.3961 133.026 21.7975H135.506C135.506 21.6102 135.479 21.4496 135.427 21.289C135.374 21.1284 135.295 20.9946 135.216 20.8876C135.11 20.7805 135.005 20.6735 134.846 20.62C134.714 20.5397 134.53 20.5129 134.372 20.5129ZM98.6275 32.6363L98.7067 32.8771C98.7331 32.7968 98.7594 32.7166 98.8122 32.6363C98.8386 32.556 98.8913 32.4757 98.9177 32.3954L101.081 28.3811C101.107 28.3008 101.16 28.274 101.213 28.2472C101.265 28.2205 101.318 28.2205 101.397 28.2205H102.03V34.7505H101.265V29.7727C101.265 29.6924 101.265 29.6389 101.292 29.5586L99.1024 33.6265C99.0232 33.7603 98.9177 33.8406 98.7858 33.8406H98.6539C98.522 33.8406 98.4165 33.7603 98.3374 33.6265L96.0951 29.5318C96.0951 29.6121 96.1215 29.6924 96.1215 29.7727V34.7773H95.3565V28.2472H95.9896C96.0687 28.2472 96.1215 28.2472 96.1743 28.274C96.227 28.3008 96.2534 28.3275 96.3062 28.4078L98.522 32.4222C98.5484 32.4757 98.6012 32.556 98.6275 32.6363ZM105.433 30.0938C105.697 30.0938 105.961 30.1474 106.198 30.2277C106.436 30.3079 106.62 30.4418 106.805 30.6291C106.963 30.8164 107.095 31.0305 107.201 31.2714C107.306 31.539 107.333 31.8066 107.333 32.1546C107.333 32.2884 107.306 32.3687 107.28 32.4222C107.254 32.4757 107.201 32.4757 107.122 32.4757H104.114C104.114 32.7701 104.167 33.0109 104.22 33.225C104.299 33.4391 104.378 33.6265 104.51 33.7603C104.642 33.8941 104.774 34.0012 104.959 34.0814C105.143 34.1617 105.328 34.1885 105.539 34.1885C105.75 34.1885 105.908 34.1617 106.067 34.1082C106.225 34.0547 106.33 34.0012 106.436 33.9476C106.541 33.8941 106.62 33.8406 106.7 33.7871C106.779 33.7335 106.832 33.7068 106.884 33.7068C106.937 33.7068 106.99 33.7335 107.043 33.7871L107.254 34.0814C107.148 34.2153 107.043 34.2955 106.911 34.4026C106.779 34.4829 106.62 34.5632 106.462 34.6167C106.304 34.6702 106.146 34.7237 105.987 34.7505C105.829 34.7773 105.644 34.804 105.486 34.804C105.17 34.804 104.879 34.7505 104.616 34.6435C104.22 34.4829 104.114 34.3758 103.93 34.1617C103.745 33.9476 103.587 33.7068 103.481 33.3856C103.376 33.0912 103.323 32.7166 103.323 32.3419C103.323 32.0207 103.376 31.7264 103.481 31.432C103.587 31.1376 103.719 30.9235 103.903 30.7094C104.088 30.4953 104.299 30.3347 104.563 30.2277C104.827 30.1474 105.117 30.0938 105.433 30.0938ZM105.46 30.6826C105.064 30.6826 104.774 30.7897 104.537 31.0305C104.299 31.2714 104.167 31.5658 104.114 31.9672H106.594C106.594 31.7799 106.568 31.6193 106.515 31.4587C106.462 31.2982 106.383 31.1643 106.304 31.0573C106.198 30.9502 106.093 30.8432 105.935 30.7897C105.803 30.7094 105.644 30.6826 105.46 30.6826ZM108.493 34.7773V30.1741H108.968C109.074 30.1741 109.153 30.2277 109.179 30.3347L109.232 30.8164C109.39 30.6023 109.575 30.4418 109.786 30.3079C109.997 30.1741 110.234 30.1206 110.498 30.1206C110.815 30.1206 111.052 30.2009 111.237 30.3882C111.422 30.5756 111.553 30.7897 111.659 31.0841C111.712 30.9235 111.817 30.7629 111.896 30.6559C112.002 30.522 112.107 30.4418 112.239 30.3615C112.371 30.2812 112.503 30.2277 112.661 30.2009C112.793 30.1741 112.952 30.1474 113.11 30.1474C113.347 30.1474 113.558 30.1741 113.743 30.2544C113.928 30.3347 114.086 30.4418 114.218 30.6023C114.35 30.7629 114.455 30.9235 114.508 31.1376C114.561 31.3517 114.613 31.5925 114.613 31.8869V34.8308H113.822V31.8869C113.822 31.539 113.743 31.2446 113.585 31.0573C113.426 30.87 113.215 30.7897 112.899 30.7897C112.767 30.7897 112.635 30.8164 112.529 30.87C112.424 30.9235 112.318 30.977 112.213 31.0841C112.107 31.1911 112.055 31.2982 112.002 31.432C111.949 31.5658 111.923 31.7264 111.923 31.9137V34.8576H111.131V31.9137C111.131 31.539 111.052 31.2714 110.92 31.0841C110.762 30.8967 110.551 30.8164 110.287 30.8164C110.103 30.8164 109.918 30.87 109.733 30.977C109.575 31.0841 109.417 31.2179 109.258 31.4052V34.8308H108.493V34.7773ZM116.064 34.7773V28.0867H116.856V30.8432C117.04 30.6291 117.251 30.4418 117.515 30.3079C117.753 30.1741 118.043 30.0938 118.359 30.0938C118.623 30.0938 118.861 30.1474 119.072 30.2544C119.388 30.415 119.467 30.4953 119.625 30.7094C119.784 30.8967 119.889 31.1643 119.968 31.4587C120.048 31.7531 120.1 32.101 120.1 32.4757C120.1 32.8236 120.048 33.1448 119.968 33.4124C119.889 33.7068 119.757 33.9476 119.573 34.1617C119.414 34.3758 119.203 34.5364 118.966 34.6702C118.729 34.804 118.438 34.8576 118.148 34.8576C117.858 34.8576 117.594 34.804 117.41 34.697C117.199 34.5899 117.014 34.4294 116.882 34.2153L116.829 34.6435C116.803 34.7505 116.724 34.804 116.618 34.804H116.064V34.7773ZM118.095 30.7361C117.832 30.7361 117.621 30.7897 117.41 30.9235C117.225 31.0573 117.04 31.2179 116.882 31.432V33.6532C117.014 33.8406 117.172 34.0012 117.357 34.0814C117.542 34.1617 117.726 34.2153 117.937 34.2153C118.359 34.2153 118.676 34.0547 118.913 33.7603C119.151 33.4659 119.256 33.0109 119.256 32.4489C119.256 32.1546 119.23 31.8869 119.177 31.6728C119.124 31.4587 119.045 31.2714 118.94 31.1376C118.834 31.0038 118.729 30.8967 118.57 30.8432C118.438 30.7629 118.28 30.7361 118.095 30.7361ZM123.002 30.0938C123.266 30.0938 123.53 30.1474 123.767 30.2277C124.004 30.3079 124.189 30.4418 124.374 30.6291C124.532 30.8164 124.664 31.0305 124.769 31.2714C124.875 31.539 124.901 31.8066 124.901 32.1546C124.901 32.2884 124.875 32.3687 124.849 32.4222C124.822 32.4757 124.769 32.4757 124.69 32.4757H121.657C121.657 32.7701 121.709 33.0109 121.762 33.225C121.841 33.4391 121.921 33.6265 122.052 33.7603C122.184 33.8941 122.316 34.0012 122.501 34.0814C122.686 34.1617 122.87 34.1885 123.081 34.1885C123.292 34.1885 123.451 34.1617 123.609 34.1082C123.767 34.0547 123.873 34.0012 123.978 33.9476C124.084 33.8941 124.163 33.8406 124.242 33.7871C124.321 33.7335 124.374 33.7068 124.427 33.7068C124.479 33.7068 124.532 33.7335 124.585 33.7871L124.796 34.0814C124.69 34.2153 124.585 34.2955 124.453 34.4026C124.321 34.4829 124.163 34.5632 124.004 34.6167C123.846 34.6702 123.688 34.7237 123.53 34.7505C123.371 34.7773 123.187 34.804 123.028 34.804C122.712 34.804 122.422 34.7505 122.158 34.6435C121.762 34.4829 121.657 34.3758 121.472 34.1617C121.287 33.9476 121.129 33.7068 121.024 33.3856C120.918 33.0912 120.865 32.7166 120.865 32.3419C120.865 32.0207 120.918 31.7264 121.024 31.432C121.129 31.1376 121.261 30.9235 121.446 30.7094C121.63 30.4953 121.841 30.3347 122.105 30.2277C122.369 30.1474 122.686 30.0938 123.002 30.0938ZM123.028 30.6826C122.633 30.6826 122.343 30.7897 122.105 31.0305C121.868 31.2714 121.736 31.5658 121.683 31.9672H124.163C124.163 31.7799 124.136 31.6193 124.084 31.4587C124.031 31.2982 123.952 31.1643 123.873 31.0573C123.767 30.9502 123.662 30.8432 123.503 30.7897C123.371 30.7094 123.213 30.6826 123.028 30.6826ZM126.062 34.7773V30.1741H126.511C126.59 30.1741 126.669 30.2009 126.695 30.2277C126.722 30.2544 126.748 30.3079 126.774 30.3882L126.827 31.1108C126.985 30.7897 127.17 30.5488 127.407 30.3615C127.645 30.1741 127.909 30.0938 128.225 30.0938C128.357 30.0938 128.463 30.1206 128.568 30.1474C128.674 30.1741 128.753 30.2277 128.858 30.2812L128.753 30.8967C128.726 30.977 128.674 31.0038 128.621 31.0038C128.568 31.0038 128.515 30.977 128.436 30.9502C128.357 30.9235 128.225 30.8967 128.067 30.8967C127.777 30.8967 127.566 30.977 127.381 31.1376C127.196 31.2982 127.038 31.539 126.906 31.8602V34.804H126.062V34.7773Z" fill="#0D133D"/>
</svg>
